<svg width="24" height="24" viewBox="0 0 24 24" fill="none" xmlns="http://www.w3.org/2000/svg">
<circle cx="12" cy="12" r="9.375" fill="#6A0D69" stroke="#FAFBFC" stroke-width="1.25"/>
<path d="M15.0978 8.61945C14.9245 8.58235 14.7592 8.60275 14.613 8.69178C14.108 8.99924 14.0505 9.99035 14.558 10.8614C15.0652 11.7324 15.799 12.2427 16.304 11.9352C16.3714 11.8942 16.4308 11.8411 16.4819 11.7776C16.5317 12.088 16.5583 12.4024 16.5592 12.7183C16.5594 12.8335 16.5589 12.9488 16.5577 13.0641C16.4513 12.9951 16.3331 12.9533 16.2039 12.943C15.4878 12.8857 14.7485 13.8236 14.6553 15.0457C14.562 16.2677 14.943 17.2951 15.6588 17.3523C15.769 17.3612 15.8798 17.3464 15.9886 17.3105C15.8958 17.5288 15.7698 17.764 15.5662 17.883C15.4603 17.9447 15.3385 17.9802 15.2199 18.0072C15.0572 18.0441 14.891 18.0656 14.725 18.0811C14.3162 18.1191 13.9034 18.1169 13.4934 18.0959C13.0647 18.0737 12.6353 18.029 12.2127 17.9503C11.8866 17.8897 11.5728 17.7995 11.2663 17.6713C10.9211 17.5268 10.5863 17.3557 10.2639 17.1646C9.93892 16.9721 9.62334 16.7581 9.33595 16.5105C9.11906 16.3243 8.89169 16.1044 8.77529 15.835C8.73046 15.7315 8.70154 15.6196 8.71528 15.5057C8.73299 15.3587 8.8136 15.26 8.91012 15.1558C9.29583 14.7386 9.65407 14.2944 9.97145 13.8206C10.4804 13.0605 10.9146 12.2054 11.0657 11.2885C11.172 10.6433 11.1123 9.92161 10.6836 9.41423C10.4696 9.1611 10.1681 8.94492 9.84312 8.87581C9.43789 8.78971 9.03014 8.96857 8.77745 9.29598C8.66539 9.44121 8.58767 9.59789 8.57032 9.77934C8.55369 9.95339 8.5743 10.1289 8.61985 10.2971C8.66395 10.4593 8.73335 10.6234 8.83421 10.7549C8.87831 10.8122 8.93036 10.8651 8.9835 10.9009C9.00917 10.9179 9.04821 10.939 9.06411 10.9445C9.07857 10.9497 9.0934 10.9545 9.10858 10.9582C9.11581 10.9599 9.12303 10.9615 9.13026 10.9628C9.13192 10.963 9.13801 10.9639 9.1393 10.9641C9.21269 10.9711 9.27125 10.9571 9.34355 10.9197C9.41259 10.8843 9.48814 10.8285 9.50983 10.7601C9.52827 10.7013 9.52031 10.6515 9.49429 10.5846C9.48742 10.5672 9.46537 10.5247 9.44946 10.4988C9.435 10.4752 9.41151 10.4419 9.40428 10.4323C9.39087 10.4151 9.37424 10.3981 9.35722 10.3807C9.30537 10.3277 9.24984 10.2708 9.27053 10.1943C9.29872 10.0905 9.41765 10.0694 9.50766 10.0794C9.78565 10.1101 10.0387 10.3218 10.128 10.5912C10.2263 10.8883 10.1233 11.2268 9.92265 11.4534C9.73612 11.6636 9.46754 11.7885 9.19967 11.8466C8.8812 11.9157 8.54755 11.9012 8.23233 11.8214C7.48802 11.633 6.89229 11.0731 6.61214 10.3484C6.44947 9.92716 6.37391 9.45932 6.40789 9.00737C6.42741 8.75202 6.48128 8.5011 6.57852 8.26459C6.67287 8.03474 6.80879 7.82631 6.95591 7.62824C7.48116 6.92057 8.20739 6.40321 9.04893 6.17225C9.94043 5.92807 10.893 5.99912 11.7771 6.2422C11.7409 6.27816 11.7111 6.32007 11.6885 6.36811C11.4995 6.76906 11.8942 7.42093 12.597 7.76645C13.2997 8.11234 13.9898 8.13673 14.1785 7.73615C14.1921 7.70727 14.2026 7.6771 14.2103 7.64583C14.5331 7.94207 14.8306 8.26869 15.0978 8.61945Z" fill="#FAFBFC"/>
<path fill-rule="evenodd" clip-rule="evenodd" d="M12.2864 6.25821C12.0324 6.25859 11.9017 6.34139 11.8514 6.44821L11.8513 6.44834C11.7964 6.56488 11.8128 6.75594 11.9599 6.98739C12.1028 7.21219 12.3504 7.44017 12.6753 7.59994L12.6754 7.59997C13.0102 7.76476 13.3311 7.8471 13.58 7.84646C13.8342 7.84579 13.9653 7.76275 14.0156 7.65598C14.0704 7.53972 14.054 7.34906 13.9067 7.11783C13.7637 6.89325 13.516 6.66539 13.1909 6.50539C12.856 6.34054 12.5352 6.25785 12.2864 6.25821ZM12.2859 5.88867C12.6047 5.88821 12.9799 5.9914 13.3477 6.17243C13.7254 6.35833 14.0266 6.62879 14.2097 6.91621C14.3885 7.19698 14.4752 7.53199 14.3413 7.81631C14.2029 8.11013 13.8946 8.21518 13.5809 8.216C13.262 8.21683 12.8865 8.11403 12.5185 7.93293C12.1408 7.74718 11.8397 7.47647 11.6568 7.18874C11.4781 6.90767 11.3916 6.57238 11.5257 6.288M12.2859 5.88867C11.9724 5.88913 11.6642 5.99384 11.5257 6.28788L12.2859 5.88867ZM15.3884 8.94376C15.1078 8.76409 14.8756 8.74694 14.7055 8.85053C14.5266 8.95941 14.3993 9.20973 14.3864 9.57195C14.3738 9.92823 14.4757 10.3589 14.7133 10.7668L14.7133 10.7668C14.9568 11.185 15.2487 11.5053 15.5276 11.6835C15.8087 11.8631 16.0413 11.8801 16.2115 11.7765C16.3903 11.6677 16.5173 11.4176 16.5298 11.0556C16.5422 10.6995 16.44 10.2689 16.2022 9.86096C15.9585 9.44266 15.6669 9.12212 15.3884 8.94376ZM15.5802 8.63058C15.9208 8.84864 16.249 9.21914 16.5128 9.67185C16.7826 10.1349 16.9061 10.635 16.8911 11.0687C16.8763 11.4965 16.7228 11.8954 16.3965 12.094C16.0617 12.2978 15.675 12.2134 15.3361 11.9969C14.995 11.779 14.6664 11.4087 14.4027 10.9559C14.1329 10.4927 14.0098 9.9924 14.0252 9.55852C14.0404 9.13057 14.1943 8.73161 14.5205 8.53303C14.8554 8.32916 15.2417 8.41382 15.5802 8.63058ZM15.0527 13.4019C15.3586 12.9954 15.7753 12.7234 16.218 12.7588C16.6704 12.7948 16.9883 13.1377 17.1744 13.5872C17.3613 14.0386 17.4336 14.6324 17.3854 15.2637C17.3363 15.907 17.1175 16.482 16.8088 16.8931C16.5034 17.2997 16.0873 17.572 15.6447 17.5365C15.1923 17.5004 14.8739 17.1576 14.6873 16.708C14.4998 16.2565 14.4269 15.6627 14.4751 15.0313C14.5242 14.3879 14.7435 13.8129 15.0527 13.4019ZM15.3393 13.6272C15.0766 13.9764 14.8796 14.4814 14.8355 15.06C14.7904 15.6507 14.8614 16.1816 15.02 16.5636C15.1795 16.9476 15.4094 17.1471 15.6729 17.1681C15.9459 17.19 16.2564 17.0218 16.522 16.6681C16.7843 16.3188 16.9808 15.8137 17.025 15.2349C17.0701 14.6441 16.9996 14.1132 16.8415 13.7312C16.6825 13.3473 16.4531 13.1481 16.1899 13.1272L16.1898 13.1272C15.9164 13.1053 15.6053 13.2736 15.3393 13.6272Z" fill="#FAFBFC"/>
</svg>
